<svg width="160" height="162" viewBox="0 0 160 162" fill="none" xmlns="http://www.w3.org/2000/svg">
<ellipse cx="16.4384" cy="17.1625" rx="16.4384" ry="15.7377" fill="#F2F2F7"/>
<ellipse cx="16.4384" cy="80.6381" rx="16.4384" ry="15.7377" fill="#F2F2F7"/>
<ellipse cx="16.4384" cy="144.113" rx="16.4384" ry="15.7377" fill="#F2F2F7"/>
<ellipse cx="79.9999" cy="17.1625" rx="16.4384" ry="15.7377" fill="#F2F2F7"/>
<ellipse cx="79.9999" cy="80.6381" rx="16.4384" ry="15.7377" fill="#F2F2F7"/>
<ellipse cx="79.9999" cy="144.113" rx="16.4384" ry="15.7377" fill="#F2F2F7"/>
<ellipse cx="143.561" cy="17.1625" rx="16.4384" ry="15.7377" fill="#F2F2F7"/>
<ellipse cx="143.561" cy="80.6381" rx="16.4384" ry="15.7377" fill="#F2F2F7"/>
<path d="M160 144.113C160 152.805 152.64 159.851 143.561 159.851C134.483 159.851 127.123 152.805 127.123 144.113C127.123 135.421 134.483 128.375 143.561 128.375C152.64 128.375 160 135.421 160 144.113ZM131.145 144.113C131.145 150.679 136.704 156.001 143.561 156.001C150.419 156.001 155.978 150.679 155.978 144.113C155.978 137.548 150.419 132.226 143.561 132.226C136.704 132.226 131.145 137.548 131.145 144.113Z" fill="#34C759"/>
<line x1="2.5" y1="-2.5" x2="219.611" y2="-2.5" transform="matrix(0.697759 -0.716332 0.745957 0.665995 3.83594 161.425)" stroke="#34C759" stroke-width="5" stroke-linecap="round"/>
</svg>
